HIERARCHY
ROOT Hips
{
	OFFSET -3.958830 18.904000 13.208200
	CHANNELS 6 Xposition Yposition Zposition Zrotation Yrotation Xrotation 
	JOINT LHipJoint
	{
		OFFSET 0.000000 0.000000 0.000000
		CHANNELS 3 Zrotation Yrotation Xrotation
		JOINT LeftUpLeg
		{
			OFFSET 1.800000 -1.400000 0.085000
			CHANNELS 3 Zrotation Yrotation Xrotation
			JOINT LeftLeg
			{
				OFFSET 2.215000 -6.000000 0.000000
				CHANNELS 3 Zrotation Yrotation Xrotation
				JOINT LeftFoot
				{
					OFFSET 2.500000 -6.900000 0.000000
					CHANNELS 3 Zrotation Yrotation Xrotation
					JOINT LeftToeBase
					{
						OFFSET 0.200000 -0.500000 1.950000
						CHANNELS 3 Zrotation Yrotation Xrotation
						End Site
						{
							OFFSET 0.000000 0.000000 0.000000
						}
					}
				}
			}
		}
	}
	JOINT RHipJoint
	{
		OFFSET 0.000000 0.000000 0.000000
		CHANNELS 3 Zrotation Yrotation Xrotation
		JOINT RightUpLeg
		{
			OFFSET -1.800000 -1.400000 0.085000
			CHANNELS 3 Zrotation Yrotation Xrotation
			JOINT RightLeg
			{
				OFFSET -2.215000 -6.000000 0.000000
				CHANNELS 3 Zrotation Yrotation Xrotation
				JOINT RightFoot
				{
					OFFSET -2.500000 -6.900000 0.000000
					CHANNELS 3 Zrotation Yrotation Xrotation
					JOINT RightToeBase
					{
						OFFSET -0.200000 -0.500000 1.950000
						CHANNELS 3 Zrotation Yrotation Xrotation
						End Site
						{
							OFFSET 0.000000 0.000000 0.000000
						}
					}
				}
			}
		}
	}
	JOINT LowerBack
	{
		OFFSET 0.000000 0.000000 0.000000
		CHANNELS 3 Zrotation Yrotation Xrotation
		JOINT Spine
		{
			OFFSET -0.087000 1.940000 -0.288900
			CHANNELS 3 Zrotation Yrotation Xrotation
			JOINT Spine1
			{
				OFFSET 0.000000 1.950000 0.060000
				CHANNELS 3 Zrotation Yrotation Xrotation
				JOINT Neck
				{
					OFFSET 0.000000 0.000000 0.000000
					CHANNELS 3 Zrotation Yrotation Xrotation
					JOINT Neck1
					{
						OFFSET 0.000000 1.600000 0.340000
						CHANNELS 3 Zrotation Yrotation Xrotation
						JOINT Head
						{
							OFFSET 0.000000 1.667000 -0.240000
							CHANNELS 3 Zrotation Yrotation Xrotation
							End Site
							{
								OFFSET 0.000000 0.000000 0.000000
							}
						}
					}
				}
				JOINT LeftShoulder
				{
					OFFSET 0.000000 0.000000 0.000000
					CHANNELS 3 Zrotation Yrotation Xrotation
					JOINT LeftArm
					{
						OFFSET 2.700000 1.550000 -0.730000
						CHANNELS 3 Zrotation Yrotation Xrotation
						JOINT LeftForeArm
						{
							OFFSET 5.450000 0.000000 0.000000
							CHANNELS 3 Zrotation Yrotation Xrotation
							JOINT LeftHand
							{
								OFFSET 3.450000 0.000000 0.000000
								CHANNELS 3 Zrotation Yrotation Xrotation
								JOINT LeftHandIndex1
								{
									OFFSET 0.750000 0.000000 0.000000
									CHANNELS 3 Zrotation Yrotation Xrotation
									End Site
									{
										OFFSET 0.000000 0.000000 0.000000
									}
								}
							}
						}
					}
				}
				JOINT RightShoulder
				{
					OFFSET 0.000000 0.000000 0.000000
					CHANNELS 3 Zrotation Yrotation Xrotation
					JOINT RightArm
					{
						OFFSET -2.700000 1.550000 -0.730000
						CHANNELS 3 Zrotation Yrotation Xrotation
						JOINT RightForeArm
						{
							OFFSET -5.450000 0.000000 0.000000
							CHANNELS 3 Zrotation Yrotation Xrotation
							JOINT RightHand
							{
								OFFSET -3.450000 0.000000 0.000000
								CHANNELS 3 Zrotation Yrotation Xrotation
								JOINT RightHandIndex1
								{
									OFFSET -0.750000 0.000000 0.000000
									CHANNELS 3 Zrotation Yrotation Xrotation
									End Site
									{
										OFFSET 0.000000 0.000000 0.000000
									}
								}
							}
						}
					}
				}
			}
		}
	}
}
MOTION
Frames: 6
Frame Time: 0.016667
0.300550 17.714190 -8.627760 8.178948 -46.060759 -13.676762 -15.351456 12.551104 5.066889 14.555029 5.228545 -50.148212 8.075550 14.188021 61.794724 0.616594 11.310040 0.350055 0.697480 0.461440 0.581940 18.269149 -10.750218 1.745515 -8.006788 6.193992 -12.554783 -6.559979 -1.621575 33.156630 -0.592937 -4.262250 2.836923 0.170080 -0.166880 0.278960 -3.249720 -0.903259 -8.200620 0.286925 7.874480 49.066607 -7.404635 11.588324 8.573012 4.198963 -11.088017 -11.537073 -21.045094 16.765003 37.709806 -9.930170 6.006420 -28.141900 -17.567553 -5.959165 4.192209 -37.696621 10.084106 -13.179761 -38.441101 -37.387261 6.685916 -3.263078 3.215716 0.730210 -0.192940 0.300400 0.058930 7.962911 23.901598 5.526241 26.525999 29.724999 -9.387732 -116.373343 54.808291 -96.142611 2.061303 -0.690152 0.042330 0.175370 -0.071860 -0.245590 
0.343410 17.709340 -8.564320 5.705872 -47.560543 -9.981270 -15.356512 12.561280 4.965095 13.499189 4.588619 -48.935218 6.828392 15.494312 64.175181 0.750314 11.762302 0.205955 0.715910 0.469680 0.616160 18.266636 -10.529412 2.126457 -3.944317 7.152883 -14.876207 -8.220078 -0.679205 34.579588 -0.663823 -4.187341 2.852799 0.151760 -0.237800 0.264290 -3.332290 -1.001927 -8.305025 1.900885 6.716835 47.085221 -7.824736 10.975568 7.040733 4.402143 -10.959043 -12.450220 -22.446858 17.855625 41.015584 -10.418670 6.269450 -29.898030 -21.522028 -8.524486 4.691486 -40.539839 9.640204 -13.677702 -27.398410 -35.727356 3.328463 -3.190715 3.103322 0.799920 -0.263590 0.356470 0.043570 11.826757 25.657579 6.480234 31.120845 29.641423 -8.434799 -115.413931 60.029180 -100.748645 2.189104 -0.331853 0.052010 0.176640 -0.080670 -0.264410 
0.373930 17.645190 -8.476210 1.603181 -47.834434 -4.987482 -15.343300 12.457926 4.843483 12.857680 3.751648 -47.396786 5.200162 16.219813 64.330480 0.764874 11.899814 0.173075 0.693380 0.424050 0.635200 18.286578 -10.278319 2.615822 0.377899 8.332523 -17.051458 -8.718426 -0.302435 36.305926 -0.723662 -4.256988 2.819758 0.134580 -0.254890 0.229340 -3.548391 -0.956284 -8.444464 5.560295 4.583054 44.684308 -8.530138 10.009208 5.052518 4.523087 -10.658186 -12.406394 -22.774292 18.248202 43.361377 -10.299200 6.618700 -30.051490 -25.332487 -9.147904 4.291472 -42.614776 8.181018 -12.707375 -17.216207 -32.127783 0.721229 -3.193853 2.958707 0.849860 -0.293890 0.361380 0.018210 15.486641 24.825477 6.775486 36.250421 28.735348 -6.532859 -110.693582 66.200443 -99.187712 2.318179 0.697754 0.012300 0.206360 -0.063890 -0.296440 
0.372120 17.560390 -8.393410 -0.684311 -45.344466 -1.339834 -15.288857 12.490573 4.623456 10.307067 1.573612 -45.207192 3.592282 15.423026 61.772727 0.677495 11.365226 0.342920 0.702070 0.422140 0.662330 18.307399 -10.129253 3.006556 2.171060 9.362874 -19.391783 -6.668822 -1.188866 38.929065 -0.798220 -4.562136 2.700268 0.121300 -0.278630 0.255870 -3.619495 -1.115743 -8.496178 7.856271 3.056757 41.385851 -8.481035 8.475813 2.513574 4.569778 -9.575499 -10.806434 -20.804570 17.748119 46.297674 -11.077130 7.838960 -28.759850 -28.091255 -8.188289 3.523868 -43.746757 5.425450 -10.459212 -9.343130 -26.755257 -0.794486 -3.260049 2.900880 0.853520 -0.284340 0.381260 0.016400 17.903200 22.224131 4.509887 44.115184 25.691791 -17.385966 -76.132750 87.045925 -70.082691 1.311965 3.836663 0.030040 0.163620 -0.079090 -0.312850 
0.388160 17.434790 -8.292630 -2.601236 -41.449236 2.469703 -15.177899 12.428709 4.499400 7.007721 -1.254346 -43.485533 3.240240 13.211308 58.593117 0.525333 10.460722 0.659596 0.676530 0.387410 0.635780 18.386063 -10.086242 3.312531 3.174407 9.766030 -22.016648 -4.091756 -2.591106 40.326908 -0.812865 -4.787151 2.623119 0.104190 -0.252080 0.259220 -3.845908 -1.074798 -8.512941 11.398041 0.733130 37.129319 -9.230407 6.407619 1.238125 4.659563 -9.098156 -9.973808 -19.238274 17.444673 46.586217 -10.460910 9.225130 -26.139160 -29.898511 -6.274406 1.890293 -45.580243 2.349789 -8.750221 -2.578639 -22.905631 -1.646871 -3.350863 2.856326 0.829840 -0.252270 0.350990 0.027660 19.408413 18.349452 5.085694 49.646440 23.461372 -13.829719 -11.539403 83.916311 -16.703806 1.774694 -1.136294 0.020420 0.130990 -0.079570 -0.316560 
0.394080 17.288260 -8.186340 -3.648368 -38.889464 5.823420 -15.084290 12.462399 4.320469 3.744815 -3.132459 -41.068205 3.195754 10.980578 54.104946 0.357085 9.295681 1.092990 0.622580 0.320390 0.581950 18.451355 -10.090279 3.535954 3.878798 9.862735 -24.225752 -2.810129 -3.347233 40.830015 -0.789770 -4.885675 2.608313 0.070700 -0.198800 0.245150 -3.999587 -1.113597 -8.465787 13.618082 -0.450460 32.390410 -9.435189 4.717659 -0.907596 4.582209 -8.858419 -8.758077 -18.561667 16.755800 46.414625 -9.712170 10.160780 -22.268170 -30.432835 -3.147718 0.206098 -48.151021 -0.057954 -7.081859 0.786067 -18.364148 -1.884082 -3.459852 2.808654 0.790590 -0.210120 0.298650 0.053110 19.922636 13.746504 4.332762 55.709153 21.347666 -11.150895 6.393340 72.351623 -1.146463 1.946132 -1.402311 -0.004760 0.110600 -0.080660 -0.309590 
